<svg xmlns="http://www.w3.org/2000/svg" width="640" height="240" viewBox="0 0 640 240">
  <rect width="100%" height="100%" fill="#ffffff"/>
  <text x="48" y="18" font-family="system-ui,sans-serif" font-size="14" font-weight="600" fill="#0f172a">Rework rate (30d)</text>
  <text x="624" y="18" text-anchor="end" font-family="system-ui,sans-serif" font-size="10" fill="#94a3b8">lower is better</text>
  <line x1="48" y1="28" x2="48" y2="204" stroke="#e2e8f0"/>
  <line x1="48" y1="204" x2="624" y2="204" stroke="#e2e8f0"/>
  <text x="42" y="207.0" text-anchor="end" font-family="system-ui,sans-serif" font-size="10" fill="#64748b">-0.05</text>
<text x="42" y="119.0" text-anchor="end" font-family="system-ui,sans-serif" font-size="10" fill="#64748b">0.5</text>
<text x="42" y="31.0" text-anchor="end" font-family="system-ui,sans-serif" font-size="10" fill="#64748b">1.1</text>

  <text x="14" y="116.0" transform="rotate(-90 14 116.0)" text-anchor="middle" font-family="system-ui,sans-serif" font-size="11" fill="#64748b">rate</text>
  <line x1="48" y1="172.0" x2="624" y2="172.0" stroke="#16a34a" stroke-dasharray="4 3" stroke-width="1.5"/><text x="620" y="168.0" text-anchor="end" font-family="system-ui,sans-serif" font-size="10" fill="#16a34a">elite 15%</text>
  <polyline fill="none" stroke="#2563eb" stroke-width="2.5" points="48.0,94.5 96.0,95.4 144.0,105.3 192.0,92.2 240.0,36.0 288.0,90.4 336.0,100.0 384.0,104.6 432.0,111.8 480.0,98.4 528.0,108.3 576.0,101.5 624.0,104.1"/>
  <circle cx="48.0" cy="94.5" r="3.5" fill="#2563eb"/>
<circle cx="96.0" cy="95.4" r="3.5" fill="#2563eb"/>
<circle cx="144.0" cy="105.3" r="3.5" fill="#2563eb"/>
<circle cx="192.0" cy="92.2" r="3.5" fill="#2563eb"/>
<circle cx="240.0" cy="36.0" r="3.5" fill="#2563eb"/>
<circle cx="288.0" cy="90.4" r="3.5" fill="#2563eb"/>
<circle cx="336.0" cy="100.0" r="3.5" fill="#2563eb"/>
<circle cx="384.0" cy="104.6" r="3.5" fill="#2563eb"/>
<circle cx="432.0" cy="111.8" r="3.5" fill="#2563eb"/>
<circle cx="480.0" cy="98.4" r="3.5" fill="#2563eb"/>
<circle cx="528.0" cy="108.3" r="3.5" fill="#2563eb"/>
<circle cx="576.0" cy="101.5" r="3.5" fill="#2563eb"/>
<circle cx="624.0" cy="104.1" r="3.5" fill="#2563eb"/>
  <text x="48.0" y="228" text-anchor="middle" font-family="system-ui,sans-serif" font-size="10" fill="#64748b">2026-06-01</text>
<text x="96.0" y="228" text-anchor="middle" font-family="system-ui,sans-serif" font-size="10" fill="#64748b">2026-06-08</text>
<text x="144.0" y="228" text-anchor="middle" font-family="system-ui,sans-serif" font-size="10" fill="#64748b">2026-06-15</text>
<text x="192.0" y="228" text-anchor="middle" font-family="system-ui,sans-serif" font-size="10" fill="#64748b">2026-06-22</text>
<text x="240.0" y="228" text-anchor="middle" font-family="system-ui,sans-serif" font-size="10" fill="#64748b">2026-06-29</text>
<text x="288.0" y="228" text-anchor="middle" font-family="system-ui,sans-serif" font-size="10" fill="#64748b">2026-07-06</text>
<text x="336.0" y="228" text-anchor="middle" font-family="system-ui,sans-serif" font-size="10" fill="#64748b">2026-07-13</text>
<text x="384.0" y="228" text-anchor="middle" font-family="system-ui,sans-serif" font-size="10" fill="#64748b">2026-07-20</text>
<text x="432.0" y="228" text-anchor="middle" font-family="system-ui,sans-serif" font-size="10" fill="#64748b">2026-07-27</text>
<text x="480.0" y="228" text-anchor="middle" font-family="system-ui,sans-serif" font-size="10" fill="#64748b">2026-08-03</text>
<text x="528.0" y="228" text-anchor="middle" font-family="system-ui,sans-serif" font-size="10" fill="#64748b">2026-08-10</text>
<text x="576.0" y="228" text-anchor="middle" font-family="system-ui,sans-serif" font-size="10" fill="#64748b">2026-08-17</text>
<text x="624.0" y="228" text-anchor="middle" font-family="system-ui,sans-serif" font-size="10" fill="#64748b">2026-08-24</text>
</svg>
